<svg version="1.2" xmlns="http://www.w3.org/2000/svg" viewBox="0 0 34 26" width="34" height="26">
	<title>logo-svg</title>
	<style>
		.s0 { fill: #615dff } 
		.s1 { mix-blend-mode: multiply;fill: #3dd9eb } 
	</style>
	<path id="Layer" class="s0" d="m5 26c-2.8 0-5-2.2-5-5v-16c0-2.8 2.3-5.1 5-4.5q2.4 0.5 4.6 1.5c3.1 1.3 5.8 3.2 8.2 5.6 2.3 2.4 4.2 5.3 5.4 8.5q1 2.4 1.5 4.9c0.5 2.7-1.8 5-4.6 5z"/>
	<g id="Layer">
		<path id="Layer" class="s1" d="m13.7 26c-2.8 0-5-2.3-4.5-5q0.4-2.5 1.4-4.9c1.3-3.2 3.1-6.1 5.5-8.5 2.3-2.4 5.1-4.3 8.1-5.6q2.3-1 4.7-1.5c2.7-0.6 4.9 1.7 4.9 4.5v16c0 2.8-2.2 5-5 5z"/>
	</g>
</svg>